<?xml version="1.0" encoding="utf-8"?>
<!-- Generator: Adobe Illustrator 16.0.0, SVG Export Plug-In . SVG Version: 6.00 Build 0)  -->
<!DOCTYPE svg PUBLIC "-//W3C//DTD SVG 1.1//EN" "http://www.w3.org/Graphics/SVG/1.1/DTD/svg11.dtd">
<svg version="1.1" id="Capa_1" xmlns="http://www.w3.org/2000/svg" xmlns:xlink="http://www.w3.org/1999/xlink" x="0px" y="0px"
	 width="24px" height="24px" viewBox="0 0 24 24" enable-background="new 0 0 24 24" xml:space="preserve">
<title>@1xIconly/Bold/Heart</title>
<desc>Created with Sketch.</desc>
<g id="Iconly_x2F_Bold_x2F_Heart">
	<g id="Heart" transform="translate(1.999783, 2.500540)">
		<path fill="#FFFFFF" d="M6.28,0c0.63,0.019,1.24,0.129,1.831,0.33l0,0H8.17c0.04,0.019,0.07,0.04,0.09,0.059
			C8.481,0.46,8.69,0.54,8.89,0.65l0,0l0.38,0.17C9.42,0.9,9.6,1.049,9.7,1.11C9.8,1.169,9.91,1.23,10,1.299
			C11.112,0.45,12.46-0.01,13.85,0c0.631,0,1.262,0.089,1.86,0.29c3.69,1.2,5.021,5.25,3.909,8.79
			c-0.629,1.809-1.659,3.46-3.008,4.809c-1.932,1.87-4.051,3.53-6.332,4.96l0,0L10.03,19l-0.26-0.161
			c-2.289-1.42-4.42-3.08-6.369-4.96c-1.34-1.349-2.371-2.99-3.011-4.799c-1.13-3.54,0.2-7.59,3.931-8.811
			c0.29-0.1,0.589-0.17,0.889-0.209l0,0h0.12C5.611,0.019,5.89,0,6.17,0l0,0H6.28z M15.19,3.16c-0.41-0.141-0.859,0.08-1.01,0.5
			c-0.14,0.42,0.08,0.88,0.5,1.029c0.641,0.24,1.07,0.871,1.07,1.57l0,0V6.29c-0.02,0.229,0.05,0.45,0.189,0.62
			c0.141,0.17,0.351,0.269,0.57,0.29c0.41-0.011,0.76-0.34,0.79-0.761l0,0V6.32C17.33,4.919,16.481,3.65,15.19,3.16z"/>
	</g>
</g>
</svg>
