<?xml version="1.0" encoding="utf-8"?>
<!-- Generator: Adobe Illustrator 16.0.0, SVG Export Plug-In . SVG Version: 6.00 Build 0)  -->
<!DOCTYPE svg PUBLIC "-//W3C//DTD SVG 1.1//EN" "http://www.w3.org/Graphics/SVG/1.1/DTD/svg11.dtd">
<svg version="1.1" id="Capa_1" xmlns:xodm="http://www.corel.com/coreldraw/odm/2003"
	 xmlns="http://www.w3.org/2000/svg" xmlns:xlink="http://www.w3.org/1999/xlink" x="0px" y="0px" width="122.879px"
	 height="122.879px" viewBox="0 0 122.879 122.879" enable-background="new 0 0 122.879 122.879" xml:space="preserve">
<path fill="#FFFFFF" d="M21.854,122.88l-15.14-0.002c-0.739-0.002-1.356-0.558-1.433-1.292c-0.616-5.951-2.34-41.675,20.41-33.293
	c16.658,6.141,29.436,3.565,34.18-6.881c4.45-9.802,0.215-25.207-13.184-32.518C27.936,38.656,26.968,27.62,26.936,27.156
	L26.933,2.025l-0.004-0.069c-0.001-0.052,0-0.102,0.005-0.152c0.012-1.131,1.057-1.577,1.884-1.34l14.007-0.447
	c0.855-0.119,1.831,0.473,1.677,1.605c-0.021,0.157-2.062,15.762,4.855,21.587c2.934,2.472,7.226,2.836,12.755,1.085
	c84.586-26.788,61.039,93.451,8.121,93.451c-21.928,0-30.566-16.576-38.836-11.614c-4.158,2.492-8.412,8.679-8.105,15.231h-0.017
	C23.311,122.107,22.838,122.881,21.854,122.88L21.854,122.88z M84.216,40.767c-3.753,0-6.806-3.052-6.806-6.805
	c0-3.752,3.053-6.805,6.806-6.805c3.752,0,6.805,3.053,6.805,6.805C91.022,37.714,87.968,40.767,84.216,40.767z M84.216,30.037
	c-5.165,0-5.165,7.849,0,7.849C89.38,37.886,89.38,30.037,84.216,30.037z M76.268,70.969c-3.752,0-6.806-3.054-6.806-6.807
	c0-3.751,3.054-6.805,6.806-6.805c3.753,0,6.807,3.053,6.807,6.805C83.073,67.915,80.021,70.969,76.268,70.969z M76.268,60.24
	c-5.164,0-5.165,7.849,0,7.849C81.434,68.088,81.433,60.24,76.268,60.24z M95.74,84.083c-3.752,0-6.806-3.054-6.806-6.807
	c0-3.752,3.054-6.805,6.806-6.805c3.753,0,6.807,3.054,6.807,6.805C102.545,81.031,99.492,84.083,95.74,84.083z M95.74,73.355
	c-5.165,0-5.165,7.848,0,7.848C100.906,81.202,100.906,73.355,95.74,73.355z M74.281,100.774c-3.752,0-6.805-3.053-6.805-6.805
	s3.053-6.805,6.805-6.805s6.805,3.053,6.805,6.805S78.032,100.774,74.281,100.774z M74.281,90.045c-5.165,0-5.165,7.849,0,7.849
	C79.445,97.894,79.445,90.045,74.281,90.045z"/>
</svg>
