<?xml version="1.0" encoding="utf-8"?>
<!-- Generator: Adobe Illustrator 16.0.0, SVG Export Plug-In . SVG Version: 6.00 Build 0)  -->
<!DOCTYPE svg PUBLIC "-//W3C//DTD SVG 1.1//EN" "http://www.w3.org/Graphics/SVG/1.1/DTD/svg11.dtd">
<svg version="1.1" id="Capa_1" xmlns="http://www.w3.org/2000/svg" xmlns:xlink="http://www.w3.org/1999/xlink" x="0px" y="0px"
	 width="512px" height="512px" viewBox="0 0 512 512" enable-background="new 0 0 512 512" xml:space="preserve">
<path id="id_101" fill="#FFFFFF" d="M384,240c1.679,0,3.315-0.528,4.678-1.51c1.361-0.982,2.381-2.367,2.912-3.96l5.606-16.82
	c11.532,9.782,26.332,14.85,41.44,14.192c15.107-0.659,29.411-6.996,40.048-17.744c10.637-10.749,16.826-25.116,17.328-40.23
	c0.502-15.114-4.72-29.86-14.62-41.291c-9.901-11.43-23.752-18.702-38.783-20.362c-15.031-1.66-30.134,2.416-42.29,11.411
	s-20.469,22.247-23.276,37.106s0.098,30.231,8.134,43.041c-0.317,0.515-0.574,1.064-0.768,1.637L378.234,224H360v-84.687l0.399-0.4
	c15.138-15.055,27.14-32.964,35.312-52.688C403.881,66.5,408.058,45.35,408,24c0-2.122-0.844-4.157-2.344-5.657
	c-1.5-1.5-3.535-2.343-5.656-2.343H112c-2.122,0-4.157,0.843-5.657,2.343c-1.5,1.5-2.343,3.535-2.343,5.657
	c-0.059,21.35,4.119,42.499,12.29,62.224c8.17,19.726,20.172,37.633,35.31,52.688l0.4,0.4v135.98l-66.53,36.962l-62.462,7.809
	c-1.935,0.241-3.715,1.182-5.005,2.644C16.712,324.167,16,326.05,16,328v160c0,2.122,0.843,4.157,2.343,5.657S21.878,496,24,496h464
	c2.121,0,4.156-0.843,5.656-2.343S496,490.122,496,488V328c0-1.95-0.713-3.833-2.004-5.294c-1.29-1.462-3.069-2.402-5.005-2.644
	l-62.462-7.809L360,275.293V240H384z M436,128c8.701,0,17.209,2.581,24.444,7.415c7.236,4.835,12.875,11.707,16.206,19.747
	c3.33,8.04,4.201,16.887,2.504,25.422c-1.698,8.535-5.889,16.375-12.042,22.529c-6.153,6.153-13.994,10.344-22.528,12.042
	c-8.535,1.697-17.383,0.826-25.423-2.504c-8.04-3.331-14.911-8.97-19.747-16.206C394.58,189.209,392,180.702,392,172
	c0.013-11.666,4.652-22.85,12.901-31.098C413.15,132.653,424.334,128.013,436,128L436,128z M32,335.062l56.992-7.125
	c1.016-0.127,1.998-0.446,2.893-0.944l72-40c1.247-0.693,2.286-1.707,3.01-2.937S168,281.427,168,280V136
	c0-1.051-0.207-2.091-0.609-3.062c-0.402-0.97-0.991-1.852-1.733-2.595l-2.745-2.745c-25.608-25.461-40.829-59.538-42.7-95.6
	h271.574c-1.871,36.062-17.092,70.139-42.699,95.6l-2.745,2.745c-1.5,1.501-2.342,3.535-2.342,5.657v88h-14.9
	c-0.118-5.679-0.873-11.327-2.251-16.838c-2.165-8.703-7.183-16.43-14.25-21.949c-7.069-5.52-15.782-8.513-24.75-8.504
	c-2.673-0.001-5.326,0.45-7.849,1.333v-14.728l10.344-10.343c8.44-8.394,13.324-19.716,13.636-31.616l1.953-5.854
	c2.148-6.539,1.882-13.631-0.752-19.989c-2.634-6.359-7.46-11.562-13.603-14.667c-1.329-0.665-2.816-0.947-4.296-0.813
	c-1.48,0.133-2.895,0.676-4.082,1.569c-7.862,5.849-17.401,9.008-27.2,9.008s-19.338-3.159-27.2-9.008
	c-1.189-0.892-2.603-1.434-4.082-1.568c-1.48-0.133-2.967,0.148-4.296,0.812c-6.144,3.104-10.969,8.308-13.604,14.666
	c-2.634,6.359-2.899,13.451-0.752,19.989l1.953,5.855c0.312,11.9,5.195,23.222,13.636,31.616L232,163.314v14.728
	c-2.522-0.883-5.174-1.334-7.847-1.333c-8.968-0.009-17.681,2.984-24.75,8.504c-7.067,5.519-12.085,13.246-14.25,21.949
	c-3.885,15.41-2.782,31.656,3.149,46.4l10.252,25.638c1.256,3.135,3.119,5.989,5.482,8.401c2.362,2.412,5.179,4.334,8.288,5.653
	c3.107,1.32,6.445,2.013,9.822,2.037c3.376,0.024,6.726-0.618,9.853-1.892v78.483L191.376,400.9l-17.735-44.338
	c-2.342-5.855-6.326-10.908-11.473-14.551c-5.147-3.643-11.237-5.721-17.537-5.982s-12.541,1.302-17.973,4.505
	c-5.433,3.202-9.822,7.907-12.643,13.547l-6.75,13.5C89.85,402.329,82.804,441.356,86.971,480H32V335.062z M306.748,423.22
	c-1.017,0.679-1.984,1.409-2.93,2.164l-43.346-29.228c-1.322-0.891-2.879-1.367-4.473-1.367c-1.595,0-3.152,0.477-4.474,1.367
	l-43.346,29.228c-0.945-0.755-1.913-1.485-2.93-2.164c-2.902-1.937-5.384-4.437-7.3-7.353l46.699-33.357
	c1.036-0.74,1.88-1.717,2.463-2.849c0.582-1.134,0.887-2.388,0.887-3.661v-8h16v8c0,1.273,0.304,2.527,0.887,3.661
	c0.582,1.132,1.427,2.108,2.463,2.849l46.7,33.357C312.134,418.783,309.651,421.283,306.748,423.22L306.748,423.22z M218.608,437.65
	L256,412.438l37.392,25.213c-3.535,6.29-5.392,13.384-5.392,20.6V480h-64v-21.748C224.001,451.036,222.144,443.941,218.608,437.65
	L218.608,437.65z M248,304h16v16h-16V304z M248,336h16v16h-16V336z M264,288h-16v-11.746c0.975-1.176,2.197-2.123,3.58-2.773
	c1.383-0.648,2.892-0.985,4.42-0.985c1.527,0,3.037,0.337,4.42,0.985c1.382,0.65,2.604,1.598,3.58,2.773V288z M279.65,271.111
	c-2.195-4.393-5.571-8.086-9.749-10.668c-4.177-2.582-8.99-3.948-13.9-3.948s-9.725,1.366-13.901,3.948s-7.553,6.275-9.749,10.668
	l-1.436,2.871c-0.828,1.656-2.116,3.037-3.71,3.977c-1.595,0.941-3.427,1.4-5.275,1.323s-3.637-0.687-5.148-1.757
	c-1.51-1.068-2.68-2.551-3.366-4.27l-10.255-25.639c-4.676-11.622-5.544-24.427-2.482-36.574c1.304-5.24,4.324-9.892,8.58-13.215
	c4.256-3.323,9.502-5.125,14.901-5.119c2.078,0.003,4.072,0.831,5.543,2.302c1.47,1.471,2.297,3.465,2.299,5.544v2.345
	c0,6.365,2.528,12.47,7.028,16.971c4.501,4.5,10.606,7.029,16.972,7.029c6.364,0,12.47-2.529,16.971-7.029
	c4.5-4.501,7.029-10.606,7.029-16.971v-2.348c0.002-2.08,0.83-4.074,2.301-5.545c1.471-1.471,3.465-2.299,5.545-2.301
	c5.399-0.006,10.645,1.796,14.9,5.119c4.257,3.323,7.276,7.975,8.58,13.215c3.062,12.147,2.193,24.953-2.481,36.575l-10.255,25.641
	c-0.688,1.719-1.857,3.201-3.368,4.27c-1.51,1.069-3.298,1.68-5.146,1.756c-1.85,0.076-3.682-0.383-5.275-1.322
	c-1.594-0.941-2.883-2.322-3.71-3.977L279.65,271.111z M248,200.555V168h16v34.9c0,2.122-0.843,4.157-2.343,5.657
	S258.122,210.9,256,210.9s-4.157-0.843-5.657-2.343S248,205.022,248,202.9V200.555z M279.029,141.655L268.687,152h-25.374
	l-10.342-10.344c-2.853-2.837-5.115-6.212-6.655-9.929c-1.54-3.718-2.327-7.703-2.315-11.727c0-0.86-0.14-1.713-0.41-2.529
	l-2.343-7.031c-0.718-2.181-0.83-4.516-0.325-6.755c0.504-2.24,1.606-4.301,3.189-5.964c9.625,5.801,20.65,8.867,31.889,8.867
	c11.237,0,22.263-3.066,31.888-8.867c1.583,1.663,2.685,3.724,3.189,5.964c0.505,2.24,0.393,4.575-0.324,6.756l-2.343,7.03
	c-0.271,0.816-0.41,1.669-0.41,2.529c0.011,4.024-0.776,8.009-2.316,11.727C284.144,135.444,281.882,138.819,279.029,141.655
	L279.029,141.655z M103.069,480c-4.23-36.142,2.202-72.732,18.508-105.264l6.75-13.5c1.439-2.881,3.683-5.285,6.458-6.922
	c2.773-1.635,5.963-2.435,9.181-2.301c3.219,0.133,6.33,1.194,8.959,3.055c2.629,1.861,4.665,4.442,5.861,7.434
	c0,0,22.3,55.641,22.31,55.661c3.203,7.476,8.512,13.859,15.281,18.368c1.818,1.213,3.478,2.648,4.939,4.273
	c0.026,0.029,0.051,0.06,0.076,0.089c4.261,4.777,6.613,10.957,6.608,17.358V480H103.069z M304,480v-21.748
	c-0.005-4.298,1.055-8.531,3.082-12.321c2.028-3.789,4.963-7.018,8.541-9.398c6.771-4.51,12.08-10.895,15.283-18.372
	c0.014-0.018,0.029-0.034,0.042-0.053c0.749-1.049,22.267-55.601,22.267-55.601c1.195-2.991,3.231-5.571,5.86-7.433
	s5.74-2.922,8.959-3.057c3.219-0.133,6.407,0.666,9.182,2.303c2.774,1.636,5.018,4.039,6.458,6.921l6.75,13.5
	c16.304,32.53,22.736,69.119,18.507,105.259H304z M348.115,286.993l72,40c0.896,0.498,1.877,0.817,2.894,0.944L480,335.062V480
	h-54.972c4.165-38.645-2.882-77.672-20.3-112.42l-6.75-13.5c-2.82-5.641-7.21-10.344-12.642-13.547
	c-5.433-3.203-11.674-4.768-17.974-4.506c-6.3,0.263-12.39,2.341-17.537,5.983c-5.146,3.644-9.131,8.695-11.473,14.55l-17.73,44.34
	L280,371.883V293.4c3.127,1.273,6.476,1.916,9.852,1.892c3.377-0.024,6.715-0.717,9.823-2.037c3.108-1.319,5.925-3.241,8.288-5.653
	c2.362-2.412,4.226-5.267,5.481-8.401l10.255-25.639c1.756-4.391,3.099-8.936,4.01-13.576c0.1,0,0.192,0.015,0.291,0.015h16v40
	c0,1.427,0.382,2.827,1.104,4.057C345.828,285.286,346.867,286.3,348.115,286.993L348.115,286.993z M410.343,157.657
	c-1.5-1.5-2.343-3.535-2.343-5.657s0.843-4.157,2.343-5.657S413.878,144,416,144c2.121,0,4.156,0.843,5.656,2.343l8,8
	c1.5,1.5,2.344,3.535,2.344,5.657s-0.844,4.157-2.344,5.657S426.121,168,424,168c-2.122,0-4.157-0.843-5.657-2.343L410.343,157.657z
	 M442.343,173.657c-0.743-0.743-1.332-1.625-1.734-2.595C440.206,170.091,440,169.051,440,168s0.206-2.091,0.608-3.062
	c0.402-0.97,0.991-1.852,1.734-2.595l8-8c1.5-1.5,3.535-2.343,5.657-2.343c2.121,0,4.156,0.843,5.656,2.343S464,157.878,464,160
	s-0.844,4.157-2.344,5.657l-8,8c-0.743,0.743-1.625,1.332-2.595,1.734C450.091,175.793,449.051,176,448,176
	c-1.052,0-2.092-0.207-3.062-0.609C443.968,174.989,443.086,174.4,442.343,173.657L442.343,173.657z M427.577,184.845l16,8
	c0.948,0.465,1.795,1.113,2.491,1.906c0.696,0.794,1.229,1.718,1.566,2.718c0.338,1,0.475,2.058,0.401,3.111
	c-0.072,1.053-0.354,2.082-0.825,3.026c-0.473,0.944-1.127,1.786-1.927,2.476c-0.799,0.69-1.726,1.215-2.729,1.545
	s-2.062,0.458-3.114,0.377c-1.053-0.081-2.079-0.369-3.02-0.849l-16-8c-1.882-0.959-3.307-2.622-3.967-4.627
	c-0.658-2.006-0.5-4.19,0.445-6.078c0.944-1.888,2.596-3.327,4.596-4.002C423.496,183.773,425.683,183.916,427.577,184.845z"/>
</svg>
