<?xml version="1.0" encoding="utf-8"?>
<!-- Generator: Adobe Illustrator 16.0.0, SVG Export Plug-In . SVG Version: 6.00 Build 0)  -->
<!DOCTYPE svg PUBLIC "-//W3C//DTD SVG 1.1//EN" "http://www.w3.org/Graphics/SVG/1.1/DTD/svg11.dtd">
<svg version="1.1" id="Capa_1" xmlns="http://www.w3.org/2000/svg" xmlns:xlink="http://www.w3.org/1999/xlink" x="0px" y="0px"
	 width="595.279px" height="841.891px" viewBox="0 0 595.279 841.891" enable-background="new 0 0 595.279 841.891"
	 xml:space="preserve">
<g id="Layer_55">
	<path fill="#FFFFFF" stroke="#FFFFFF" stroke-miterlimit="10" d="M563.993,227.098c-13.274-13.267-30.801-21.428-49.498-23.049
		c-4.46-66.386-90.178-97.402-136.382-49.392c-28.383,28.403-31.423,73.406-7.117,105.368l-74.352,74.989l-0.85-29.528
		c-0.146-5.866-5.021-10.502-10.887-10.356c-5.867,0.147-10.503,5.021-10.357,10.888l0,0l1.381,49.709L137.214,493.809
		c-31.963-24.306-76.964-21.267-105.368,7.116c-48.647,46.736-17.526,132.452,48.859,136.914
		c4.462,66.492,90.284,97.4,136.383,49.392c28.382-28.404,31.422-73.406,7.116-105.368l63.73-63.729
		c3.08,8.179,2.019,25.81,14.764,25.917c5.863,0.172,10.756-4.443,10.929-10.306c0.028-0.965-0.076-1.93-0.308-2.866
		c-2.55-10.621-5.098-20.499-7.436-30.378L458.52,347.547C538.608,405.967,632.503,299.006,563.993,227.098z M202.006,573.79
		c-4.119,4.143-4.119,10.834,0,14.977c53.108,56.826-26.661,136.808-83.487,83.486c-36.113-34.521-10.621-99.737,39.089-100.481
		c5.866-0.234,10.431-5.181,10.196-11.046c-0.234-5.866-5.18-10.432-11.046-10.197c-37.519,1.618-68.875,29.087-75.415,66.067
		c-47.691-3.612-70.528-67.023-34.946-100.057c23.048-22.971,60.333-22.971,83.38,0c4.143,4.118,10.834,4.118,14.977,0
		l131.603-131.603v18.694c-0.076,5.228,3.664,9.733,8.817,10.622l15.825,2.761c-26.554,30.166-27.084,32.821-27.616,35.583
		c-0.531,2.761-0.85,4.673,7.967,42.486L202.006,573.79z M548.804,325.349c-23.047,22.971-60.334,22.971-83.38,0
		c-4.144-4.119-10.835-4.119-14.978,0l-151.04,151.253c-2.018-8.922-3.611-15.934-4.355-19.756
		c5.205-6.799,21.243-24.643,34.839-40.363c2.597-2.886,3.411-6.959,2.125-10.622c-1.252-3.648-4.382-6.332-8.18-7.01l-26.234-4.461
		l-0.85-30.166l95.595-95.596c4.118-4.142,4.118-10.833,0-14.977c-22.971-23.046-22.971-60.333,0-83.38
		c33.141-35.158,96.552-12.746,100.163,35.264c-36.983,6.457-64.48,37.799-66.067,75.309c0,5.866,4.756,10.621,10.621,10.621
		c5.867,0,10.623-4.755,10.623-10.621c0.743-50.135,65.854-75.202,100.481-39.089c23.259,22.866,23.577,60.257,0.713,83.516
		C548.854,325.297,548.829,325.323,548.804,325.349z"/>
</g>
</svg>
