<?xml version="1.0" encoding="utf-8"?>
<!-- Generator: Adobe Illustrator 16.0.0, SVG Export Plug-In . SVG Version: 6.00 Build 0)  -->
<!DOCTYPE svg PUBLIC "-//W3C//DTD SVG 1.1//EN" "http://www.w3.org/Graphics/SVG/1.1/DTD/svg11.dtd">
<svg version="1.1" id="Capa_1" xmlns:xodm="http://www.corel.com/coreldraw/odm/2003"
	 xmlns="http://www.w3.org/2000/svg" xmlns:xlink="http://www.w3.org/1999/xlink" x="0px" y="0px" width="168px" height="168px"
	 viewBox="0 0 168 168" enable-background="new 0 0 168 168" xml:space="preserve">
<g id="Layer_x0020_1">
	<path fill="#FFFFFF" d="M43.592,140.717c-8.846-0.949-15.104-4.267-18.62-9.876c-5.077-8.097-2.76-18.497-1.345-23.041
		c-5.694-3.037-9.282-7.195-10.673-12.385c-2.381-8.869,2.552-17.885,4.498-20.97c-2.179-7.399-1.82-13.494,1.067-18.13
		c2.524-4.052,6.359-5.902,8.788-6.707c-0.137-9.488,2.372-16.451,7.467-20.712c5.271-4.41,11.865-4.663,15.595-4.361
		c1.394-8.47,8.766-14.953,17.625-14.953c9.851,0,17.865,8.014,17.865,17.864v110.902c0,10.191-14.9,17.862-24.56,17.862
		C52.252,156.209,44.756,149.449,43.592,140.717L43.592,140.717z"/>
	<path fill="#FFFFFF" d="M134.036,86.139H83.294c-1.417,0-2.565-1.147-2.565-2.564c0-1.417,1.147-2.563,2.565-2.563h50.742
		c1.418,0,2.564,1.147,2.564,2.563C136.6,84.991,135.453,86.139,134.036,86.139z"/>
	<path fill="#FFFFFF" d="M143.57,96.175c-6.678,0-12.109-5.433-12.109-12.11s5.432-12.109,12.109-12.109
		c6.679,0,12.11,5.432,12.11,12.109C155.68,90.743,150.249,96.175,143.57,96.175z"/>
	<path fill="#FFFFFF" d="M105.522,68.45H83.293c-1.417,0-2.564-1.146-2.564-2.564c0-1.417,1.146-2.563,2.564-2.563h21.168
		l15.464-15.466c1.002-1,2.624-1.002,3.625,0c1,1.001,1,2.624,0,3.625l-16.217,16.216c-0.48,0.482-1.132,0.751-1.812,0.751V68.45z"
		/>
	<path fill="#FFFFFF" d="M121.738,121.021c-0.656,0-1.311-0.251-1.812-0.751l-15.465-15.464H83.293
		c-1.417,0-2.564-1.147-2.564-2.563c0-1.419,1.146-2.564,2.564-2.564h22.229c0.68,0,1.332,0.27,1.812,0.752l16.217,16.217
		c1,0.999,1,2.624,0,3.624C123.05,120.771,122.394,121.021,121.738,121.021z"/>
	<path fill="#FFFFFF" d="M128.552,137.254c-6.678,0-12.109-5.433-12.109-12.112c0-6.677,5.433-12.108,12.109-12.108
		c6.678,0,12.11,5.432,12.11,12.108C140.662,131.821,135.229,137.254,128.552,137.254z"/>
	<path fill="#FFFFFF" d="M128.427,54.967c-6.678,0-12.111-5.434-12.111-12.111c0-6.679,5.434-12.11,12.111-12.11
		s12.109,5.432,12.109,12.11C140.536,49.534,135.101,54.967,128.427,54.967z"/>
	<path fill="#FFFFFF" d="M101.077,148.293c-0.879,0-1.732-0.451-2.211-1.262l-17.781-30.183c-0.718-1.221-0.313-2.792,0.908-3.511
		c1.221-0.723,2.791-0.312,3.511,0.907l17.78,30.184c0.718,1.22,0.312,2.791-0.908,3.51
		C101.968,148.179,101.519,148.292,101.077,148.293L101.077,148.293z"/>
	<path fill="#FFFFFF" d="M105.969,166.038c-6.678,0-12.109-5.433-12.109-12.108c0-6.68,5.432-12.112,12.109-12.112
		s12.11,5.433,12.11,12.112C118.079,160.605,112.646,166.038,105.969,166.038z"/>
	<path fill="#FFFFFF" d="M83.29,58.718c-0.436,0-0.876-0.111-1.28-0.345c-1.226-0.708-1.646-2.276-0.938-3.503l19.477-33.733
		c0.705-1.226,2.271-1.647,3.501-0.938c1.226,0.708,1.646,2.276,0.938,3.503L85.512,57.436
		C85.038,58.259,84.176,58.718,83.29,58.718L83.29,58.718z"/>
	<path fill="#FFFFFF" d="M107.403,26.181c-6.679,0-12.109-5.433-12.109-12.111s5.432-12.109,12.109-12.109
		s12.109,5.432,12.109,12.109C119.512,20.748,114.081,26.181,107.403,26.181z"/>
</g>
</svg>
