<?xml version="1.0" encoding="utf-8"?>
<!-- Generator: Adobe Illustrator 16.0.0, SVG Export Plug-In . SVG Version: 6.00 Build 0)  -->
<!DOCTYPE svg PUBLIC "-//W3C//DTD SVG 1.1//EN" "http://www.w3.org/Graphics/SVG/1.1/DTD/svg11.dtd">
<svg version="1.1" id="Layer_1" xmlns="http://www.w3.org/2000/svg" xmlns:xlink="http://www.w3.org/1999/xlink" x="0px" y="0px"
	 width="595.279px" height="841.891px" viewBox="0 0 595.279 841.891" enable-background="new 0 0 595.279 841.891"
	 xml:space="preserve">
<path id="id_128" fill="#FFFFFF" d="M261.365,380.02c-5.581-26.043-11.162-49.297-14.882-63.249
	c-2.791-10.231-12.092-17.672-23.254-16.742l0,0c-48.366,4.65-82.781,46.506-125.566,139.519v0.93c0,0,0,0.931,0,1.86
	c0,0,0-0.93-0.931-0.93c-45.576,102.313-17.672,249.273-8.371,249.273c9.302,0,37.205-18.603,83.712-37.205
	c46.506-18.603,83.711,0,102.313-102.313C282.758,505.587,272.527,434.896,261.365,380.02z"/>
<path id="id_129" fill="#FFFFFF" d="M97.663,440.478v0.931C97.663,441.408,96.733,441.408,97.663,440.478
	c-9.302,20.463-14.882,41.855-19.533,63.249c17.673,24.183,64.179,91.152,49.297,121.846c-6.511,13.952-26.974,25.113-49.297,33.485
	c3.721,19.532,7.441,31.624,10.231,31.624c9.302,0,37.205-18.603,83.712-37.205c0.93-0.931,2.79-0.931,3.72-0.931l0,0
	C130.218,583.717,99.524,449.779,97.663,440.478z"/>
<path id="id_130" fill="#FFFFFF" d="M122.777,183.763c-8.371-8.371-19.532-13.952-32.555-13.952
	c-13.021,0-24.183,5.581-32.554,13.952s-13.952,19.533-13.952,32.554c0,13.022,5.581,24.184,13.952,32.555
	s19.532,13.952,32.554,13.952c13.022,0,24.184-5.581,32.555-13.952s13.952-20.463,13.952-32.555
	C136.729,203.296,131.148,192.134,122.777,183.763z"/>
<path id="id_131" fill="#FFFFFF" d="M122.777,220.968c-8.371,8.371-20.463,13.952-32.555,13.952
	c-13.021,0-24.183-5.581-32.554-13.952c-5.581-5.581-9.302-12.092-11.162-18.603c-1.86,4.65-2.79,9.301-2.79,13.952
	c0,13.022,5.581,24.184,13.952,32.555s19.532,13.952,32.554,13.952c13.022,0,24.184-5.581,32.555-13.952
	s13.952-20.463,13.952-32.555c0-4.65-0.931-9.301-2.791-13.952C132.077,209.807,128.358,216.317,122.777,220.968z"/>
<circle id="id_132" fill="#FFFFFF" cx="71.619" cy="197.715" r="9.301"/>
<path id="id_133" fill="#FFFFFF" d="M97.663,440.478C96.733,440.478,96.733,441.408,97.663,440.478c0,0.931,0,0.931,0,1.86
	C97.663,441.408,97.663,440.478,97.663,440.478z"/>
<path id="id_134" fill="#FFFFFF" d="M348.797,491.635c0,7.44,1.86,15.812,5.58,22.323c10.231,18.603,31.625,62.318,31.625,83.711
	v0.93c0,20.463,16.742,36.275,36.274,36.275h0.931c0,0,62.318-14.882,122.776-122.776c-3.721-14.882-8.371-26.974-11.162-35.345
	C517.15,432.106,490.176,308.4,413.906,300.959c0,0,0,0-0.93,0c-9.302-0.93-17.673,3.72-21.394,12.092
	C377.631,340.954,346.006,415.364,348.797,491.635z"/>
<path id="id_135" fill="#FFFFFF" d="M424.137,634.874c10.231,0,20.463,4.65,27.903,12.092
	c14.883,16.742,44.646,43.716,82.781,43.716c45.576,0,28.834-111.615,11.162-178.584
	C486.455,619.062,424.137,634.874,424.137,634.874z"/>
<polygon id="id_136" fill="#FFFFFF" points="341.356,355.836 341.356,225.619 285.548,225.619 285.548,355.836 261.365,380.02 
	271.597,440.478 313.452,402.343 350.657,443.269 365.539,380.02 "/>
<path id="id_137" fill="#FFFFFF" d="M556.215,555.813c-2.791-15.812-6.512-30.694-10.231-43.716
	c-59.528,106.964-121.847,122.776-121.847,122.776c10.231,0,20.463,4.65,27.903,12.092c14.883,16.742,44.646,43.716,82.781,43.716
	c7.441,0,13.022-2.791,17.673-8.371c-20.463-16.742-39.995-36.275-43.716-55.808C504.128,603.25,529.241,577.206,556.215,555.813z"
	/>
<path id="id_138" fill="#FFFFFF" d="M441.809,606.97h-0.93c-20.463,0-36.274-16.742-36.274-36.274v-0.93
	c0-21.394-21.394-64.179-31.625-83.712c-3.72-6.511-5.58-14.882-5.58-22.323c-1.86-63.248,19.532-125.566,35.345-160.911
	c-3.721,1.86-7.441,5.581-10.231,10.231c-13.952,28.833-46.507,103.244-43.716,179.514c0,7.441,1.86,15.812,5.58,22.323
	c10.231,18.603,31.625,62.318,31.625,83.711v0.931c0,20.463,16.742,36.274,36.274,36.274h0.931c0,0,57.667-13.951,116.266-111.614
	C488.316,594.879,441.809,606.97,441.809,606.97z"/>
<path id="id_139" fill="#FFFFFF" d="M261.365,380.02c-5.581-26.043-11.162-49.297-14.882-63.249
	c-2.791-10.231-12.092-17.672-23.254-16.742l0,0c-4.65,0-8.371,0.93-13.021,1.86c3.721,14.882,8.371,35.345,13.952,59.528
	c11.161,54.877,21.393,125.567,13.021,171.144c-18.603,102.313-55.808,83.711-102.313,102.313
	c-23.253,9.301-42.786,18.603-56.738,26.043c3.721,18.603,7.441,29.765,10.231,29.765c9.302,0,37.205-18.603,83.712-37.205
	c46.506-18.603,83.711,0,102.313-102.313C282.758,505.587,272.527,434.896,261.365,380.02z"/>
<path id="id_140" fill="#FFFFFF" d="M225.09,290.728c-50.227,4.65-87.432,45.576-133.008,145.1
	C47.437,534.42,68.829,674.869,81.851,694.402c2.791,4.65,7.441,5.58,9.302,5.58c6.511,0,15.812-4.65,31.624-13.021
	c13.952-6.511,32.555-15.812,54.877-25.113c9.302-3.721,18.603-5.581,27.904-8.371c34.414-8.371,65.108-14.882,79.99-101.384
	c5.581-29.764,2.791-69.76-1.859-108.825l31.624-27.903l28.833,30.694c-1.859,14.882-2.79,29.764-1.859,45.576
	c0,9.301,2.79,18.603,6.511,26.043c19.532,36.275,30.693,66.039,30.693,79.991c0,25.113,20.463,45.576,45.576,45.576h0.931
	c8.371,0,15.812,3.721,21.393,9.301c15.812,17.673,47.437,46.507,90.223,46.507c11.161,0,20.463-4.65,26.974-14.882
	c28.834-42.786-3.721-175.794-18.603-212.069c-2.791-7.44-5.581-16.742-9.302-27.903c-18.603-54.877-49.297-146.96-119.056-154.401
	c-13.021-0.93-25.113,5.581-30.694,17.672c-5.581,11.162-13.952,30.694-22.323,53.947l-11.161-9.301V225.619h-18.603v83.711H297.64
	v-27.904h27.903v-18.603H297.64v-37.205h-18.603v126.497l-9.301,9.301c-3.721-18.603-8.371-35.345-11.162-47.437
	C254.855,299.099,240.903,289.797,225.09,290.728L225.09,290.728z M115.335,671.148c-7.44,3.721-14.882,7.441-19.532,9.302
	c-2.79-6.511-5.581-19.533-7.441-36.275h13.952v-18.603H85.572c-1.86-24.183-2.79-53.017-0.93-83.711h17.672v-18.603H87.432
	c1.86-17.672,5.581-34.415,11.161-51.157c11.162,42.786,35.345,122.777,66.039,175.794
	C144.169,656.267,127.427,664.638,115.335,671.148z M201.837,635.804c-5.581,1.86-12.092,2.791-19.532,4.651
	c-28.834-47.437-52.087-121.847-64.179-166.493c16.742,15.812,35.345,30.694,54.877,38.136
	c37.205,14.882,79.061,18.603,96.733,18.603c0,5.58-0.931,12.091-1.86,16.742C254.855,623.713,233.461,628.363,201.837,635.804z
	 M549.703,674.869c-2.79,4.65-6.511,6.511-12.091,6.511c-35.345,0-63.249-25.113-76.271-39.995c-2.79-2.79-5.581-5.581-9.302-7.441
	c22.323-13.021,57.668-39.995,93.013-96.732C557.145,587.438,564.586,651.616,549.703,674.869z M403.674,316.771
	c1.86-4.651,6.511-7.441,12.092-7.441h0.93c57.668,6.511,85.572,91.152,103.244,142.31c3.721,11.161,6.511,20.462,10.231,28.833
	c2.79,7.441,6.511,18.603,10.231,30.694c-53.018,92.083-106.034,111.615-113.476,114.405c-14.882,0-26.974-12.091-26.974-27.903
	c0-23.253-20.463-65.108-33.484-88.362c-2.79-5.58-4.65-11.161-4.65-17.672C358.098,417.225,389.722,344.675,403.674,316.771z
	 M294.85,362.347c1.86-1.86,2.79-3.721,2.79-6.511v-27.904h37.205v27.904c0,2.79,0.93,4.65,2.79,6.511l2.791,2.791l-12.092,12.091
	l13.021,13.022l12.092-12.092l3.721,3.721c-3.721,13.021-7.441,26.043-10.231,39.995l-25.113-26.974
	c-3.721-3.72-9.302-3.72-13.022-0.93l-1.859,4.651L294.85,386.53l-13.021,13.022l11.161,11.162l-12.092,11.161
	c-1.86-13.021-4.65-26.043-6.511-38.135L294.85,362.347z M226.95,309.33c5.581-0.93,12.092,3.721,13.021,9.301
	c8.371,31.624,30.694,125.567,30.694,194.396c-16.742-0.93-56.737-3.721-90.222-17.672c-26.044-10.231-53.947-38.136-69.76-56.738
	C151.611,350.255,184.165,313.98,226.95,309.33l-0.93-9.301L226.95,309.33z"/>
<rect id="id_141" x="232.531" y="541.861" fill="#FFFFFF" width="18.603" height="18.603"/>
<rect id="id_142" x="195.326" y="569.766" fill="#FFFFFF" width="18.603" height="18.602"/>
<rect id="id_143" x="158.121" y="532.561" fill="#FFFFFF" width="18.603" height="18.603"/>
<rect id="id_144" x="102.314" y="588.367" fill="#FFFFFF" width="18.603" height="18.603"/>
<path id="id_145" fill="#FFFFFF" d="M47.437,248.872l-7.441,7.441l13.021,13.021l7.441-7.441c6.511,4.651,14.882,8.371,23.253,9.301
	v19.533h18.603v-19.533c8.371-1.86,15.812-4.65,23.253-9.301l7.441,7.441l13.021-13.021l-7.44-7.441
	c4.65-6.511,8.371-14.882,9.301-23.253h19.532v-18.603H147.89c-1.86-8.371-4.65-15.812-9.301-23.253l7.44-7.441L133.008,163.3
	l-7.441,7.441c-6.511-4.65-14.882-8.371-23.253-9.301v-19.533H83.711v19.533c-8.371,1.86-15.812,4.651-23.253,9.301l-7.441-7.441
	l-13.021,13.022l7.441,7.441c-4.651,7.441-8.371,14.882-9.302,23.253H18.603v18.603h19.532
	C39.066,233.99,42.785,241.431,47.437,248.872z M55.808,216.317c0-20.463,16.742-37.205,37.205-37.205
	c20.462,0,37.205,16.742,37.205,37.205s-16.743,37.205-37.205,37.205C72.55,253.522,55.808,236.78,55.808,216.317z"/>
<rect id="id_146" x="74.41" y="197.715" fill="#FFFFFF" width="9.301" height="18.603"/>
<rect id="id_147" x="102.314" y="216.317" fill="#FFFFFF" width="9.302" height="18.603"/>
<path id="id_148" fill="#FFFFFF" d="M266.016,191.204c0.93-2.791,1.86-6.511,2.79-9.301l-17.672-4.651
	c-0.931,2.791-1.86,6.511-2.791,9.302c-0.93,2.79-1.859,5.581-1.859,8.371l17.672,4.65
	C264.156,196.785,265.086,193.995,266.016,191.204z"/>
<path id="id_149" fill="#FFFFFF" d="M279.037,160.51v-18.603c-9.301,0-16.742,5.581-22.322,15.812l16.742,8.371
	C276.247,160.51,278.108,160.51,279.037,160.51z"/>
<rect id="id_150" x="297.64" y="192.134" fill="#FFFFFF" width="18.603" height="18.603"/>
<path id="id_151" fill="#FFFFFF" d="M257.645,218.178l-17.673-6.511c-1.859,5.581-4.65,10.231-7.44,13.952l14.882,11.162
	C251.134,232.13,254.855,225.619,257.645,218.178z"/>
<path id="id_152" fill="#FFFFFF" d="M226.021,252.592c0.93,0,2.79-0.93,3.72-1.86l-7.44-15.812c-0.931,0-0.931,0.93-1.86,0.93
	c-1.86,0.93-3.721,0.93-5.581,0.93c-0.93,0-2.79,0-3.72-0.93l-5.581,17.672c2.79,0.93,6.511,1.86,9.301,1.86
	C218.579,254.453,222.3,254.453,226.021,252.592z"/>
<path id="id_153" fill="#FFFFFF" d="M313.452,171.671c-2.791-8.371-6.511-14.882-11.162-20.463l-13.021,13.022
	c2.791,2.791,4.65,6.511,6.511,12.092L313.452,171.671z"/>
<path id="id_154" fill="#FFFFFF" d="M201.837,227.479c-4.65-5.581-6.511-13.022-6.511-13.022l-9.302,1.86l-9.301,1.86
	c0,0.93,2.79,11.162,9.301,19.533L201.837,227.479z"/>
</svg>
