<?xml version="1.0" encoding="utf-8"?>
<!-- Generator: Adobe Illustrator 16.0.0, SVG Export Plug-In . SVG Version: 6.00 Build 0)  -->
<!DOCTYPE svg PUBLIC "-//W3C//DTD SVG 1.1//EN" "http://www.w3.org/Graphics/SVG/1.1/DTD/svg11.dtd">
<svg version="1.1" id="Capa_1" xmlns="http://www.w3.org/2000/svg" xmlns:xlink="http://www.w3.org/1999/xlink" x="0px" y="0px"
	 width="512px" height="512px" viewBox="0 0 512 512" enable-background="new 0 0 512 512" xml:space="preserve">
<g id="_x31_20_x2C__Disease_x2C__Infected_x2C__Infection_x2C__Kidney">
	<g>
		<g>
			<path fill="#FFFFFF" d="M291,83.5c8.271,0,15-6.729,15-15s-6.729-15-15-15c-8.271,0-15,6.729-15,15S282.729,83.5,291,83.5z"/>
			<path fill="#FFFFFF" d="M453.924,105.135l-12.521-25.776c-8.232-12.567-20.848-21.21-35.553-24.353
				c-14.803-3.163-29.95-0.372-42.653,7.858c-12.703,8.229-21.44,20.915-24.604,35.717c-3.163,14.802-0.372,29.95,7.857,42.653
				c0.474,0.73,0.939,1.489,1.399,2.267h-21.016c-32.81,0-59.5,26.691-59.5,59.5v150.5c0,2.763,2.237,5,5,5c2.762,0,5-2.237,5-5V203
				c0-27.294,22.205-49.5,49.5-49.5h40.5c5.514,0,10,4.486,10,10s-4.486,10-10,10h-41.75c-15.577,0-28.25,12.673-28.25,28.25V353.5
				c0,2.762,2.237,5,5,5c2.762,0,5-2.238,5-5V201.75c0-10.063,8.187-18.25,18.25-18.25h31.745
				c-0.816,11.57-4.534,22.721-10.88,32.514c-8.229,12.703-11.021,27.851-7.857,42.653s11.9,27.485,24.604,35.717
				c12.702,8.229,27.854,11.019,42.653,7.858c14.726-3.146,27.354-11.811,35.588-24.406l10.501-20.26
				C476.515,210.161,477.256,153.173,453.924,105.135z M438.422,227.323c-0.891,1.716-2.637,2.7-4.443,2.7
				c-0.775,0-1.562-0.181-2.297-0.562c-2.452-1.271-3.409-4.288-2.139-6.74c13.724-26.478,14.138-58.301,1.106-85.128
				c-1.207-2.484-0.172-5.476,2.313-6.682c2.482-1.207,5.477-0.17,6.682,2.313C454.049,162.878,453.592,198.055,438.422,227.323z"/>
			<path fill="#FFFFFF" d="M438.066,388.562c-0.92-8.767-4.274-17.318-10.069-24.557c0.479-0.229,0.99-0.395,1.523-0.428
				c2.076-0.141,4.225,1.764,5.67,3.38c1.842,2.058,5.002,2.233,7.062,0.394c2.058-1.843,2.232-5.004,0.393-7.062
				c-4.258-4.757-8.893-7.004-13.771-6.69c-3.35,0.219-6.066,1.633-8.077,3.156c-7.044-5.719-15.494-9.242-24.51-10.229
				c0.182-0.51,0.436-0.998,0.801-1.404c1.374-1.533,4.223-1.714,6.376-1.594c2.744,0.143,5.115-1.956,5.27-4.715
				c0.153-2.756-1.958-5.115-4.715-5.27c-6.369-0.357-11.241,1.329-14.469,5.006c-2.214,2.521-3.136,5.444-3.479,7.942
				c-9.023,0.938-17.49,4.422-24.562,10.097c-0.229-0.479-0.395-0.988-0.429-1.521c-0.134-2.066,1.765-4.225,3.381-5.67
				c2.058-1.842,2.232-5.002,0.393-7.061c-1.843-2.059-5.003-2.234-7.061-0.393c-4.758,4.257-7.009,8.89-6.69,13.771
				c0.218,3.349,1.633,6.067,3.156,8.077c-5.841,7.212-9.237,15.755-10.204,24.52c-0.52-0.182-1.017-0.438-1.431-0.811
				c-1.532-1.374-1.712-4.225-1.593-6.375c0.153-2.757-1.958-5.115-4.715-5.27c-2.759-0.153-5.117,1.957-5.27,4.715
				c-0.354,6.373,1.33,11.24,5.006,14.468c2.53,2.222,5.468,3.146,7.972,3.487c0.921,8.766,4.276,17.316,10.069,24.554
				c-0.479,0.229-0.991,0.394-1.523,0.428c-2.068,0.154-4.225-1.763-5.67-3.38c-1.843-2.059-5.003-2.234-7.061-0.393
				c-2.059,1.841-2.233,5.003-0.394,7.061c3.994,4.463,8.318,6.72,12.869,6.72c0.3,0,0.602-0.01,0.902-0.028
				c3.349-0.218,6.065-1.633,8.077-3.156c7.044,5.719,15.493,9.242,24.509,10.229c-0.182,0.511-0.436,0.997-0.8,1.404
				c-1.373,1.532-4.223,1.71-6.375,1.593c-2.769-0.146-5.117,1.957-5.271,4.716c-0.153,2.757,1.958,5.115,4.715,5.27
				c0.556,0.031,1.098,0.046,1.629,0.046c5.578,0,9.895-1.695,12.841-5.052c2.214-2.521,3.135-5.444,3.479-7.942
				c9.024-0.938,17.49-4.422,24.562-10.097c0.229,0.478,0.394,0.989,0.428,1.521c0.134,2.067-1.765,4.226-3.38,5.671
				c-2.059,1.842-2.233,5.003-0.394,7.061c0.988,1.104,2.355,1.666,3.729,1.666c1.187,0,2.378-0.42,3.332-1.273
				c4.757-4.257,7.008-8.89,6.689-13.771c-0.218-3.349-1.633-6.067-3.155-8.077c5.841-7.212,9.236-15.755,10.203-24.518
				c0.52,0.181,1.017,0.437,1.431,0.809c1.533,1.374,1.712,4.227,1.593,6.376c-0.153,2.757,1.958,5.116,4.715,5.271
				c0.095,0.004,0.188,0.008,0.282,0.008c2.634,0,4.84-2.061,4.987-4.723c0.354-6.375-1.33-11.242-5.007-14.471
				C443.506,389.824,440.571,388.904,438.066,388.562z M412.356,403.232c-1.702,1.543-10.556,9.211-18.188,8.826
				c-2.729-0.144-5.099-1.254-6.851-3.213c-0.969-1.082-5.562,1.329-7.934,3.414c-0.95,0.834-2.127,1.244-3.299,1.244
				c-1.39,0-2.771-0.574-3.759-1.699c-1.822-2.074-1.619-5.232,0.455-7.057c6.734-5.917,16.098-9.016,21.898-2.668
				c1.749,0.261,7.091-2.768,10.96-6.26c2.047-1.848,5.209-1.692,7.06,0.354C414.554,398.223,414.399,401.38,412.356,403.232z
				 M388.271,377.417c2.299-1.532,5.401-0.911,6.934,1.388c1.533,2.297,0.911,5.401-1.387,6.934
				c-2.351,1.566-4.562,2.066-6.426,2.066c-1.126,0-2.124-0.183-2.951-0.422c-6.114-1.773-9.348-8.439-9.934-9.76
				c-1.121-2.523,0.016-5.479,2.539-6.6c2.517-1.119,5.464,0.011,6.591,2.52c0.799,1.746,2.504,3.927,3.594,4.236
				C387.317,377.805,387.579,377.878,388.271,377.417z"/>
			<circle fill="#FFFFFF" cx="463.5" cy="326" r="7.5"/>
			<circle fill="#FFFFFF" cx="233.5" cy="101" r="7.5"/>
			<circle fill="#FFFFFF" cx="468.5" cy="51" r="7.5"/>
			<circle fill="#FFFFFF" cx="43.5" cy="61" r="7.5"/>
			<path fill="#FFFFFF" d="M187.835,143.5h-21.017c0.461-0.779,0.929-1.539,1.4-2.268c8.229-12.702,11.021-27.85,7.857-42.652
				c-3.164-14.802-11.901-27.487-24.604-35.717s-27.85-11.023-42.653-7.858C94.115,58.148,81.5,66.792,73.266,79.358l-12.52,25.776
				c-23.333,48.039-22.592,105.026,1.982,152.441l10.501,20.26c17.04,26.065,52.085,33.495,78.241,16.548
				c26.223-16.988,33.736-52.146,16.747-78.37c-6.345-9.792-10.063-20.943-10.88-32.514h31.746c10.062,0,18.25,8.187,18.25,18.25
				V463.5c0,2.762,2.238,5,5,5c2.761,0,5-2.238,5-5V201.75c0-15.577-12.673-28.25-28.25-28.25h-41.75c-5.515,0-10-4.486-10-10
				s4.485-10,10-10h40.5c27.294,0,49.5,22.206,49.5,49.5v260.5c0,2.762,2.238,5,5,5c2.761,0,5-2.238,5-5V203
				C247.335,170.191,220.644,143.5,187.835,143.5z M82.988,229.461c-0.734,0.381-1.521,0.562-2.297,0.562
				c-1.808,0-3.554-0.984-4.442-2.7c-15.17-29.269-15.627-64.446-1.225-94.099c1.207-2.485,4.198-3.52,6.683-2.313
				c2.483,1.207,3.52,4.198,2.312,6.682c-13.031,26.826-12.617,58.649,1.106,85.128C86.397,225.173,85.439,228.191,82.988,229.461z"
				/>
			<path fill="#FFFFFF" d="M91,383.5c-19.299,0-35,15.701-35,35s15.701,35,35,35s35-15.701,35-35S110.299,383.5,91,383.5z"/>
			<circle fill="#FFFFFF" cx="298.5" cy="421" r="7.5"/>
			<circle fill="#FFFFFF" cx="48.5" cy="326" r="7.5"/>
			<circle fill="#FFFFFF" cx="173.5" cy="406" r="7.5"/>
		</g>
	</g>
</g>
<g id="Layer_1">
</g>
</svg>
